<mxfile host="65bd71144e" pages="2">
    <diagram id="l-cAG46_OUEDKfwxPjti" name="Main">
        <mxGraphModel dx="1082" dy="421" grid="1" gridSize="10" guides="1" tooltips="1" connect="1" arrows="1" fold="1" page="1" pageScale="1" pageWidth="827" pageHeight="1169" math="0" shadow="0">
            <root>
                <mxCell id="0"/>
                <mxCell id="1" parent="0"/>
                <mxCell id="KsiYZhunnQdRwXMLR8nu-1" value="" style="rounded=0;whiteSpace=wrap;html=1;" parent="1" vertex="1">
                    <mxGeometry x="40" y="40" width="760" height="520" as="geometry"/>
                </mxCell>
                <mxCell id="KsiYZhunnQdRwXMLR8nu-2" value="" style="rounded=0;whiteSpace=wrap;html=1;" parent="1" vertex="1">
                    <mxGeometry x="40" y="110" width="210" height="450" as="geometry"/>
                </mxCell>
                <mxCell id="KsiYZhunnQdRwXMLR8nu-3" value="" style="rounded=0;whiteSpace=wrap;html=1;" parent="1" vertex="1">
                    <mxGeometry x="40" y="40" width="760" height="70" as="geometry"/>
                </mxCell>
                <mxCell id="KsiYZhunnQdRwXMLR8nu-4" value="Menu" style="text;html=1;strokeColor=none;fillColor=none;align=center;verticalAlign=middle;whiteSpace=wrap;rounded=0;" parent="1" vertex="1">
                    <mxGeometry x="60" y="130" width="170" height="30" as="geometry"/>
                </mxCell>
                <mxCell id="KsiYZhunnQdRwXMLR8nu-5" value="" style="rounded=0;whiteSpace=wrap;html=1;" parent="1" vertex="1">
                    <mxGeometry x="530" y="110" width="270" height="450" as="geometry"/>
                </mxCell>
                <mxCell id="KsiYZhunnQdRwXMLR8nu-6" value="Header" style="text;html=1;strokeColor=none;fillColor=none;align=center;verticalAlign=middle;whiteSpace=wrap;rounded=0;" parent="1" vertex="1">
                    <mxGeometry x="40" y="60" width="760" height="30" as="geometry"/>
                </mxCell>
                <mxCell id="KsiYZhunnQdRwXMLR8nu-7" value="Code" style="text;html=1;strokeColor=none;fillColor=none;align=center;verticalAlign=middle;whiteSpace=wrap;rounded=0;" parent="1" vertex="1">
                    <mxGeometry x="250" y="110" width="280" height="30" as="geometry"/>
                </mxCell>
                <mxCell id="KsiYZhunnQdRwXMLR8nu-9" value="" style="rounded=0;whiteSpace=wrap;html=1;" parent="1" vertex="1">
                    <mxGeometry x="40" y="320" width="210" height="240" as="geometry"/>
                </mxCell>
                <mxCell id="KsiYZhunnQdRwXMLR8nu-10" value="Saved samples" style="text;html=1;strokeColor=none;fillColor=none;align=center;verticalAlign=middle;whiteSpace=wrap;rounded=0;" parent="1" vertex="1">
                    <mxGeometry x="115" y="395" width="60" height="30" as="geometry"/>
                </mxCell>
                <mxCell id="KsiYZhunnQdRwXMLR8nu-12" value="" style="rounded=0;whiteSpace=wrap;html=1;" parent="1" vertex="1">
                    <mxGeometry x="550" y="140" width="230" height="170" as="geometry"/>
                </mxCell>
                <mxCell id="KsiYZhunnQdRwXMLR8nu-13" value="" style="rounded=0;whiteSpace=wrap;html=1;" parent="1" vertex="1">
                    <mxGeometry x="550" y="330" width="230" height="170" as="geometry"/>
                </mxCell>
                <mxCell id="KsiYZhunnQdRwXMLR8nu-14" value="Interactions" style="text;html=1;strokeColor=none;fillColor=none;align=center;verticalAlign=middle;whiteSpace=wrap;rounded=0;" parent="1" vertex="1">
                    <mxGeometry x="550" y="110" width="230" height="30" as="geometry"/>
                </mxCell>
                <mxCell id="KsiYZhunnQdRwXMLR8nu-17" value="" style="rounded=0;whiteSpace=wrap;html=1;" parent="1" vertex="1">
                    <mxGeometry x="550" y="140" width="230" height="30" as="geometry"/>
                </mxCell>
                <mxCell id="KsiYZhunnQdRwXMLR8nu-16" value="Input relations tabs" style="text;html=1;strokeColor=none;fillColor=none;align=center;verticalAlign=middle;whiteSpace=wrap;rounded=0;" parent="1" vertex="1">
                    <mxGeometry x="550" y="140" width="230" height="30" as="geometry"/>
                </mxCell>
                <mxCell id="KsiYZhunnQdRwXMLR8nu-18" value="input relation data" style="text;html=1;strokeColor=none;fillColor=none;align=center;verticalAlign=middle;whiteSpace=wrap;rounded=0;" parent="1" vertex="1">
                    <mxGeometry x="550" y="170" width="230" height="140" as="geometry"/>
                </mxCell>
                <mxCell id="KsiYZhunnQdRwXMLR8nu-21" value="" style="rounded=0;whiteSpace=wrap;html=1;" parent="1" vertex="1">
                    <mxGeometry x="550" y="330" width="230" height="30" as="geometry"/>
                </mxCell>
                <mxCell id="KsiYZhunnQdRwXMLR8nu-22" value="Output relations tabs" style="text;html=1;strokeColor=none;fillColor=none;align=center;verticalAlign=middle;whiteSpace=wrap;rounded=0;" parent="1" vertex="1">
                    <mxGeometry x="550" y="330" width="230" height="30" as="geometry"/>
                </mxCell>
                <mxCell id="KsiYZhunnQdRwXMLR8nu-23" value="Output relations data" style="text;html=1;strokeColor=none;fillColor=none;align=center;verticalAlign=middle;whiteSpace=wrap;rounded=0;" parent="1" vertex="1">
                    <mxGeometry x="550" y="360" width="230" height="140" as="geometry"/>
                </mxCell>
                <mxCell id="KsiYZhunnQdRwXMLR8nu-24" value="" style="rounded=0;whiteSpace=wrap;html=1;" parent="1" vertex="1">
                    <mxGeometry x="250" y="140" width="280" height="420" as="geometry"/>
                </mxCell>
                <mxCell id="KsiYZhunnQdRwXMLR8nu-25" value="Inline datalog editor" style="text;html=1;strokeColor=none;fillColor=none;align=center;verticalAlign=middle;whiteSpace=wrap;rounded=0;" parent="1" vertex="1">
                    <mxGeometry x="250" y="140" width="280" height="420" as="geometry"/>
                </mxCell>
            </root>
        </mxGraphModel>
    </diagram>
    <diagram id="VR-CQN5-iAHSvAR7qa-N" name="ScreenHierarchy">
        <mxGraphModel dx="1082" dy="787" grid="1" gridSize="10" guides="1" tooltips="1" connect="1" arrows="1" fold="1" page="1" pageScale="1" pageWidth="827" pageHeight="1169" math="0" shadow="0">
            <root>
                <mxCell id="0"/>
                <mxCell id="1" parent="0"/>
                <mxCell id="SMppWq0vMo5js_m-6SVr-1" value="Main View" style="rounded=0;whiteSpace=wrap;html=1;" parent="1" vertex="1">
                    <mxGeometry x="70" y="70" width="250" height="70" as="geometry"/>
                </mxCell>
                <mxCell id="SMppWq0vMo5js_m-6SVr-2" value="Login Screen" style="rounded=0;whiteSpace=wrap;html=1;" parent="1" vertex="1">
                    <mxGeometry x="490" y="75" width="230" height="60" as="geometry"/>
                </mxCell>
                <mxCell id="SMppWq0vMo5js_m-6SVr-3" value="Data import screen" style="rounded=0;whiteSpace=wrap;html=1;" parent="1" vertex="1">
                    <mxGeometry x="80" y="200" width="230" height="50" as="geometry"/>
                </mxCell>
                <mxCell id="SMppWq0vMo5js_m-6SVr-4" value="Register screen" style="rounded=0;whiteSpace=wrap;html=1;" parent="1" vertex="1">
                    <mxGeometry x="545" y="195" width="120" height="60" as="geometry"/>
                </mxCell>
                <mxCell id="SMppWq0vMo5js_m-6SVr-7" value="" style="endArrow=classic;html=1;rounded=0;exitX=1;exitY=0.5;exitDx=0;exitDy=0;entryX=0;entryY=0.5;entryDx=0;entryDy=0;" parent="1" source="SMppWq0vMo5js_m-6SVr-1" target="SMppWq0vMo5js_m-6SVr-2" edge="1">
                    <mxGeometry width="50" height="50" relative="1" as="geometry">
                        <mxPoint x="390" y="230" as="sourcePoint"/>
                        <mxPoint x="440" y="180" as="targetPoint"/>
                    </mxGeometry>
                </mxCell>
                <mxCell id="SMppWq0vMo5js_m-6SVr-8" value="" style="endArrow=classic;html=1;rounded=0;entryX=0.5;entryY=0;entryDx=0;entryDy=0;exitX=0.5;exitY=1;exitDx=0;exitDy=0;" parent="1" source="SMppWq0vMo5js_m-6SVr-2" target="SMppWq0vMo5js_m-6SVr-4" edge="1">
                    <mxGeometry width="50" height="50" relative="1" as="geometry">
                        <mxPoint x="390" y="230" as="sourcePoint"/>
                        <mxPoint x="440" y="180" as="targetPoint"/>
                    </mxGeometry>
                </mxCell>
                <mxCell id="SMppWq0vMo5js_m-6SVr-9" value="" style="endArrow=classic;html=1;rounded=0;exitX=0.5;exitY=1;exitDx=0;exitDy=0;entryX=0.5;entryY=0;entryDx=0;entryDy=0;" parent="1" source="SMppWq0vMo5js_m-6SVr-1" target="SMppWq0vMo5js_m-6SVr-3" edge="1">
                    <mxGeometry width="50" height="50" relative="1" as="geometry">
                        <mxPoint x="390" y="230" as="sourcePoint"/>
                        <mxPoint x="440" y="180" as="targetPoint"/>
                    </mxGeometry>
                </mxCell>
            </root>
        </mxGraphModel>
    </diagram>
</mxfile>